<?xml version="1.0" encoding="utf-8"?>
<!-- Generator: Adobe Illustrator 19.2.0, SVG Export Plug-In . SVG Version: 6.00 Build 0)  -->
<svg version="1.1" id="Layer_1" xmlns="http://www.w3.org/2000/svg" xmlns:xlink="http://www.w3.org/1999/xlink" x="0px" y="0px"
	 viewBox="0 0 50 50" style="enable-background:new 0 0 50 50;" xml:space="preserve">
<style type="text/css">
	.st0{fill:none;}
	.st1{fill:none;stroke:#FFFFFF;stroke-width:2;stroke-linejoin:round;stroke-miterlimit:10;}
	.st2{fill:none;stroke:#FFFFFF;stroke-width:2;stroke-miterlimit:10;}
	.st3{fill:#FFFFFF;}
	.st4{fill:none;stroke:#FFFFFF;stroke-width:2;stroke-linecap:round;stroke-linejoin:round;stroke-miterlimit:10;}
</style>
<rect y="0" class="st0" width="50" height="50"/>
<g>
	<path class="st1" d="M25,10.1c0-3.6-2.9-6.5-6.5-6.5c-3.6,0-6.5,2.9-6.5,6.5c0,1,0.2,2,0.6,2.8"/>
</g>
<path class="st2" d="M45.4,24h-1.6c-0.8,0-1.3-0.4-1.3-0.8c-0.4-2.8-2.3-6.4-6.8-8c0-2.5,0.5-4.3,1.6-7.3c-2.5,0.6-5.4,2-7,5.7
	c-1.9-0.5-3.9-0.7-6-0.7c-5.5,0-9.6,1.7-12.9,4.2c-3,2.3-4.9,6.2-4.6,11.5c0.2,4,3,7.1,5.1,8.8c0.3,0.2,0.9,0.6,0.6,1.6
	c-0.3,1-0.9,2.4-0.9,2.4c-0.3,0.9,0.1,1.9,1,2.2l3.2,1.2c0.9,0.3,1.9-0.1,2.2-1c0,0,0.4-1.1,0.8-2c0.7-1.7,1.1-0.3,5.6-0.3
	c4.7,0,5.1-0.9,5.6,0.5c0.3,0.9,0.7,1.9,0.7,1.9c0.3,0.9,1.3,1.3,2.2,1l3.2-1.2c0.9-0.3,1.3-1.3,1-2.2l-0.5-1.4c0,0-0.5-0.9,0.6-1.5
	c2.2-1.2,3.9-3.1,5-5.4c0.2-0.5,0.6-1.2,1.6-1.2h1.6c0.9,0,1.6-0.7,1.6-1.6v-4.9C47,24.8,46.3,24,45.4,24z"/>
<path class="st3" d="M36.5,26.9c-1.1,0-1.9-0.9-1.9-1.9c0-1.1,0.9-1.9,1.9-1.9c1.1,0,1.9,0.9,1.9,1.9C38.4,26.1,37.5,26.9,36.5,26.9
	z"/>
<path class="st4" d="M6.8,23.1c0,0-3.8-0.9-3.8-4.3c0-1.4,0.7-2.7,2-3.3"/>
</svg>
